<?xml version="1.0" standalone="no"?>
<!DOCTYPE svg PUBLIC "-//W3C//DTD SVG 20010904//EN"
 "http://www.w3.org/TR/2001/REC-SVG-20010904/DTD/svg10.dtd">
<svg version="1.0" xmlns="http://www.w3.org/2000/svg"
 width="512.000000pt" height="512.000000pt" viewBox="0 0 512.000000 512.000000"
 preserveAspectRatio="xMidYMid meet">

<g transform="translate(0.000000,512.000000) scale(0.100000,-0.100000)"
fill="#000000" stroke="none">
<path d="M555 5110 c-211 -29 -391 -160 -485 -355 -70 -146 -65 15 -65 -2195
0 -2210 -5 -2049 65 -2195 64 -133 156 -226 285 -291 146 -72 69 -68 1193 -71
l1012 -4 0 881 0 880 -320 0 -320 0 0 400 0 400 319 0 320 0 3 408 c4 388 5
411 27 482 101 337 344 580 681 681 71 22 94 23 483 27 l407 3 0 -399 0 -400
-262 -3 c-241 -4 -266 -6 -297 -24 -19 -11 -43 -33 -55 -48 -20 -27 -21 -41
-24 -378 l-3 -349 401 0 c379 0 402 -1 396 -17 -4 -10 -75 -190 -159 -400
l-152 -383 -242 0 -243 0 0 -881 0 -880 533 4 c588 4 574 3 712 71 129 65 221
158 285 291 70 146 65 -15 65 2195 0 2210 5 2049 -65 2195 -64 133 -156 226
-285 291 -151 75 46 68 -2165 70 -1092 1 -2012 -2 -2045 -6z"/>
</g>
</svg>
