<?xml version="1.0" standalone="no"?>
<!DOCTYPE svg PUBLIC "-//W3C//DTD SVG 20010904//EN"
 "http://www.w3.org/TR/2001/REC-SVG-20010904/DTD/svg10.dtd">
<svg version="1.0" xmlns="http://www.w3.org/2000/svg"
 width="512.000000pt" height="512.000000pt" viewBox="0 0 512.000000 512.000000"
 preserveAspectRatio="xMidYMid meet">

<g transform="translate(0.000000,512.000000) scale(0.100000,-0.100000)"
fill="#000000" stroke="none">
<path d="M2495 4786 c-41 -18 -83 -69 -90 -109 -4 -18 -5 -118 -3 -224 3 -210
5 -218 72 -267 39 -29 133 -29 172 0 68 51 69 53 69 294 0 205 -1 220 -21 246
-11 15 -32 37 -46 47 -33 25 -113 32 -153 13z"/>
<path d="M1025 4176 c-67 -29 -105 -105 -90 -183 5 -31 30 -61 138 -170 142
-141 163 -153 244 -138 49 9 109 69 118 118 15 79 2 103 -128 236 -67 68 -136
130 -154 137 -40 17 -89 17 -128 0z"/>
<path d="M3965 4176 c-16 -8 -85 -69 -152 -137 -130 -133 -143 -157 -128 -236
9 -49 69 -109 118 -118 81 -15 102 -3 244 138 108 109 133 139 138 170 25 132
-100 236 -220 183z"/>
<path d="M2420 3834 c-298 -38 -551 -162 -761 -373 -188 -189 -299 -392 -355
-651 -26 -119 -26 -381 0 -500 55 -257 169 -466 355 -651 185 -186 394 -300
651 -355 119 -26 381 -26 500 0 259 56 462 167 651 355 186 185 300 394 355
651 26 119 26 381 0 500 -55 257 -169 466 -355 651 -185 185 -380 293 -631
350 -83 19 -331 33 -410 23z m371 -343 c179 -46 319 -127 449 -260 129 -130
212 -278 257 -457 24 -95 24 -333 0 -428 -46 -182 -125 -323 -257 -456 -137
-139 -280 -221 -466 -267 -98 -24 -324 -24 -424 0 -364 88 -636 359 -727 723
-24 95 -24 333 0 428 46 182 128 328 261 462 158 157 305 231 556 278 59 11
277 -3 351 -23z"/>
<path d="M415 2706 c-97 -43 -124 -171 -54 -251 45 -51 78 -57 301 -53 215 3
223 5 272 72 29 39 29 133 0 172 -50 67 -55 69 -282 71 -157 2 -214 0 -237
-11z"/>
<path d="M4255 2706 c-97 -43 -124 -171 -54 -251 45 -51 78 -57 301 -53 215 3
223 5 272 72 29 39 29 133 0 172 -50 67 -55 69 -282 71 -157 2 -214 0 -237
-11z"/>
<path d="M1215 1426 c-16 -8 -85 -69 -152 -137 -130 -133 -143 -157 -128 -236
9 -49 69 -109 118 -118 81 -15 102 -3 244 138 108 109 133 139 138 170 25 132
-100 236 -220 183z"/>
<path d="M3775 1426 c-67 -29 -105 -105 -90 -183 5 -31 30 -61 138 -170 142
-141 163 -153 244 -138 49 9 109 69 118 118 15 79 2 103 -128 236 -67 68 -136
130 -154 137 -40 17 -89 17 -128 0z"/>
<path d="M2495 946 c-41 -18 -83 -69 -90 -109 -4 -18 -5 -118 -3 -224 3 -210
5 -218 72 -267 39 -29 133 -29 172 0 68 51 69 53 69 294 0 205 -1 220 -21 246
-11 15 -32 37 -46 47 -33 25 -113 32 -153 13z"/>
</g>
</svg>
